<svg xmlns="http://www.w3.org/2000/svg" viewBox="0 0 32 32" fill="none">
  <defs>
    <linearGradient id="grad1" x1="0%" y1="0%" x2="100%" y2="100%">
      <stop offset="0%" style="stop-color:#8b5cf6;stop-opacity:1" />
      <stop offset="100%" style="stop-color:#ec4899;stop-opacity:1" />
    </linearGradient>
  </defs>
  <!-- Book shape -->
  <path d="M4 4C4 2.5 5 1.5 6.5 1.5h19c1.5 0 2.5 1 2.5 2.5v24c0 1.5-1 2.5-2.5 2.5h-19C5 30.5 4 29.5 4 28V4z" fill="url(#grad1)"/>
  <!-- Page -->
  <path d="M7 5h18v22H7V5z" fill="white" opacity="0.95"/>
  <!-- Pen tip -->
  <path d="M22 3l6-1.5 1.5 1.5L28 9l-6-6z" fill="#f59e0b"/>
  <!-- Text lines -->
  <rect x="9" y="9" width="12" height="2" rx="1" fill="#8b5cf6" opacity="0.5"/>
  <rect x="9" y="14" width="10" height="2" rx="1" fill="#8b5cf6" opacity="0.4"/>
  <rect x="9" y="19" width="8" height="2" rx="1" fill="#8b5cf6" opacity="0.4"/>
</svg>
