<svg xmlns="http://www.w3.org/2000/svg" viewBox="0 0 128 128" fill="none">
  <defs>
    <linearGradient id="grad1" x1="0%" y1="0%" x2="100%" y2="100%">
      <stop offset="0%" style="stop-color:#8b5cf6;stop-opacity:1" />
      <stop offset="100%" style="stop-color:#ec4899;stop-opacity:1" />
    </linearGradient>
  </defs>
  <!-- Book shape -->
  <path d="M24 16C24 12 27 8 32 8h64c5 0 8 4 8 8v96c0 4-3 8-8 8H32c-5 0-8-4-8-8V16z" fill="url(#grad1)"/>
  <!-- Pages -->
  <path d="M32 20h56v88H32V20z" fill="white" opacity="0.95"/>
  <!-- Pen -->
  <path d="M88 24l16-16 8 8-16 16-8-8z" fill="#f59e0b"/>
  <path d="M80 32l8-8 8 8-8 8-8-8z" fill="#fbbf24"/>
  <!-- Text lines -->
  <rect x="40" y="36" width="40" height="4" rx="2" fill="#8b5cf6" opacity="0.6"/>
  <rect x="40" y="48" width="32" height="4" rx="2" fill="#8b5cf6" opacity="0.4"/>
  <rect x="40" y="60" width="36" height="4" rx="2" fill="#8b5cf6" opacity="0.4"/>
  <rect x="40" y="72" width="28" height="4" rx="2" fill="#8b5cf6" opacity="0.4"/>
  <!-- AI sparkle -->
  <circle cx="72" cy="88" r="12" fill="#06b6d4" opacity="0.8"/>
  <path d="M72 80v16M64 88h16M66 82l12 12M78 82l-12 12" stroke="white" stroke-width="2" stroke-linecap="round"/>
</svg>
